<?xml version="1.0" standalone="no"?>
<!DOCTYPE svg PUBLIC "-//W3C//DTD SVG 20010904//EN"
 "http://www.w3.org/TR/2001/REC-SVG-20010904/DTD/svg10.dtd">
<svg version="1.0" xmlns="http://www.w3.org/2000/svg"
 width="256.000000pt" height="256.000000pt" viewBox="0 0 256.000000 256.000000"
 preserveAspectRatio="xMidYMid meet">
<metadata>
Created by potrace 1.14, written by Peter Selinger 2001-2017
</metadata>
<g transform="translate(0.000000,256.000000) scale(0.100000,-0.100000)"
fill="#000000" stroke="none">
<path d="M367 2535 c-140 -39 -253 -132 -314 -261 l-38 -79 -7 -230 c-8 -296
-8 -1084 0 -1380 l7 -230 38 -79 c63 -133 179 -228 318 -261 97 -23 1717 -22
1819 1 157 35 286 154 341 315 21 63 22 74 26 749 3 377 1 782 -4 901 l-9 215
-37 78 c-66 138 -200 243 -342 266 -36 6 -395 10 -905 9 -668 -1 -855 -4 -893
-14z m27 -981 c3 -9 6 -77 6 -151 l0 -136 107 6 c58 4 123 7 145 7 l38 0 0
123 c0 164 1 167 56 167 l44 0 -2 -297 -3 -298 -41 -3 c-50 -4 -54 5 -54 119
l0 76 -67 6 c-38 4 -103 7 -145 7 l-77 0 -3 -102 -3 -103 -45 0 -45 0 -3 285
c-1 157 0 290 3 297 7 19 81 17 89 -3z m874 -36 l3 -48 -90 0 -91 0 0 -238 c0
-172 -3 -241 -12 -250 -7 -7 -29 -12 -49 -12 -30 0 -38 4 -43 23 -3 12 -6 124
-6 250 l0 227 -85 0 -85 0 0 50 0 50 228 -2 227 -3 3 -47z m220 -20 c17 -40
54 -138 84 -217 49 -134 54 -142 63 -116 6 16 44 112 85 214 l75 186 63 3 c54
3 62 1 62 -15 0 -10 5 -70 10 -133 23 -274 29 -434 17 -442 -18 -12 -75 -10
-83 3 -3 6 -12 102 -20 212 -7 111 -14 204 -14 207 -1 3 -28 -62 -61 -145 -33
-82 -71 -178 -86 -213 l-26 -63 -41 3 -41 3 -77 210 c-42 116 -77 201 -78 190
-3 -89 -29 -396 -35 -404 -3 -6 -24 -11 -46 -11 l-39 0 0 74 c0 77 25 423 36
489 l6 37 58 0 58 0 30 -72z m675 -10 c4 -46 7 -156 7 -245 l0 -163 95 0 95 0
0 -50 0 -50 -144 0 -143 0 -7 92 c-8 119 -8 483 1 491 3 4 25 7 48 7 l42 0 6
-82z"/>
</g>
</svg>
